<svg width="44" height="44" viewBox="0 0 44 44" fill="none" xmlns="http://www.w3.org/2000/svg">
<g id="Uploaded to svgrepo.com">
<g id="SVGRepo_iconCarrier">
<path id="Vector" d="M39.875 5.5H4.125C1.84663 5.5 0 7.34663 0 9.625V31.625C0 33.9034 1.84663 35.75 4.125 35.75H16.5V39.875H14.4375C14.058 39.875 13.75 40.183 13.75 40.5625C13.75 40.942 14.058 41.25 14.4375 41.25H29.5625C29.942 41.25 30.25 40.942 30.25 40.5625C30.25 40.183 29.942 39.875 29.5625 39.875H27.5V35.75H39.875C42.1534 35.75 44 33.9034 44 31.625V9.625C44 7.34663 42.1534 5.5 39.875 5.5ZM26.125 39.875H17.875V35.75H26.125V39.875ZM42.625 31.625C42.625 33.1444 41.3944 34.375 39.875 34.375H4.125C2.60562 34.375 1.375 33.1444 1.375 31.625V9.625C1.375 8.10562 2.60562 6.875 4.125 6.875H39.875C41.3944 6.875 42.625 8.10562 42.625 9.625V31.625ZM35.4819 12.4162C34.4066 12.2045 33.4538 12.8288 33.1265 13.75H24.75V12.375H19.25V13.75H10.8735C10.5463 12.8288 9.592 12.2045 8.51813 12.4162C7.73025 12.5716 7.08812 13.2027 6.92312 13.9893C6.64125 15.3244 7.65188 16.5 8.9375 16.5C9.834 16.5 10.5903 15.9239 10.8735 15.125H19.25V15.433C13.2165 16.6664 8.60063 21.8377 8.26925 28.1462C8.24862 28.5409 8.56213 28.875 8.95813 28.875C9.31975 28.875 9.62362 28.5945 9.6415 28.2329C9.92887 22.6435 13.9508 18.0441 19.25 16.8355V17.875H24.75V16.8341C30.0492 18.0441 34.0711 22.6435 34.3585 28.2315C34.3778 28.5945 34.6803 28.875 35.0419 28.875C35.4379 28.875 35.7514 28.5409 35.7308 28.1462C35.3994 21.8377 30.7835 16.6664 24.75 15.433V15.125H33.1265C33.4111 15.9239 34.166 16.5 35.0625 16.5C36.3481 16.5 37.3587 15.3244 37.0783 13.9893C36.9119 13.2027 36.2697 12.5716 35.4819 12.4162ZM8.9375 15.125C8.558 15.125 8.25 14.817 8.25 14.4375C8.25 14.058 8.558 13.75 8.9375 13.75C9.317 13.75 9.625 14.058 9.625 14.4375C9.625 14.817 9.317 15.125 8.9375 15.125ZM23.375 16.5H20.625V13.75H23.375V16.5ZM35.0625 15.125C34.683 15.125 34.375 14.817 34.375 14.4375C34.375 14.058 34.683 13.75 35.0625 13.75C35.442 13.75 35.75 14.058 35.75 14.4375C35.75 14.817 35.442 15.125 35.0625 15.125Z" fill="#0B1719"/>
</g>
</g>
</svg>
