<svg width="51" height="51" viewBox="0 0 51 51" fill="none" xmlns="http://www.w3.org/2000/svg">
<g id="Frame">
<g id="SVGRepo_iconCarrier">
<path id="Vector" fill-rule="evenodd" clip-rule="evenodd" d="M26.5072 6.5981C26.1917 6.4515 25.8479 6.37555 25.5 6.37555C25.152 6.37555 24.8083 6.4515 24.4927 6.5981L2.18024 16.9575C1.76733 17.1496 1.41789 17.4557 1.17303 17.8396C0.928178 18.2236 0.798096 18.6696 0.798096 19.125C0.798096 19.5804 0.928178 20.0263 1.17303 20.4103C1.41789 20.7943 1.76733 21.1004 2.18024 21.2925L6.75112 23.4154C6.50474 23.7996 6.37417 24.2466 6.37499 24.7031V35.0625C6.37533 35.5936 6.55252 36.1095 6.87862 36.5287L6.8818 36.5351L6.88499 36.5383L6.89455 36.551L6.92005 36.5829C7.02408 36.715 7.13362 36.8426 7.24837 36.9654C7.46512 37.2077 7.7743 37.5328 8.17912 37.9185C8.98874 38.6835 10.1872 39.6875 11.7874 40.6789C15.0004 42.6742 19.8167 44.625 26.2969 44.625C32.7898 44.625 37.2619 42.6647 40.1466 40.5896C41.3008 39.7652 42.347 38.7993 43.2607 37.7145C43.636 37.2632 43.979 36.786 44.2871 36.2865L44.3094 36.2482L44.319 36.2355V36.2291C44.319 36.2259 44.3222 36.2227 42.2344 35.0625L44.3222 36.2259C44.52 35.87 44.6242 35.4697 44.625 35.0625V24.7031C44.6256 24.2467 44.4951 23.7997 44.2489 23.4154L48.8197 21.2925C49.2326 21.1004 49.5821 20.7943 49.8269 20.4103C50.0718 20.0263 50.2019 19.5804 50.2019 19.125C50.2019 18.6696 50.0718 18.2236 49.8269 17.8396C49.5821 17.4557 49.2326 17.1496 48.8197 16.9575L26.5072 6.5981ZM39.8437 25.4617L26.5072 31.6519C26.1917 31.7985 25.8479 31.8744 25.5 31.8744C25.152 31.8744 24.8083 31.7985 24.4927 31.6519L11.1562 25.4617V34.1413C12.1116 35.082 13.1702 35.9118 14.3119 36.6148C16.8746 38.2085 20.8239 39.8437 26.2969 39.8437C31.7571 39.8437 35.2537 38.2181 37.3511 36.7072C38.2905 36.038 39.1298 35.2384 39.8437 34.3325V25.4617ZM25.5 26.8483L8.86443 19.125L25.5 11.4017L42.1356 19.125L25.5 26.8483Z" fill="black"/>
</g>
</g>
</svg>
