<svg width="49" height="49" viewBox="0 0 49 49" fill="none" xmlns="http://www.w3.org/2000/svg">
<g id="Layer_1" clip-path="url(#clip0_1_111)">
<g id="SVGRepo_iconCarrier">
<path id="Vector" d="M47.775 27.1542C46.9583 26.7458 45.7333 26.5417 44.9167 26.95L42.875 27.7667V3.26667C42.875 1.42917 41.4458 0 39.8125 0H35.7292C34.0958 0 32.6667 1.42917 32.6667 3.0625V6.125H27.5625C25.9292 6.125 24.5 7.55417 24.5 9.1875V16.3333H19.3958C17.7625 16.3333 16.3333 17.7625 16.3333 19.3958V30.0125L10.2083 31.4417V30.8292C10.2083 29.6042 9.59583 28.5833 8.575 28.175L6.125 26.95C5.71667 25.5208 4.49167 24.5 3.0625 24.5H1.02083C0.408333 24.5 0 24.9083 0 25.5208V47.9792C0 48.5917 0.408333 49 1.02083 49H3.0625C4.49167 49 5.71667 47.9792 6.125 46.55L8.575 45.325C9.39167 44.9167 10.0042 43.8958 10.2083 42.875L20.0083 48.5917C20.4167 48.7958 21.0292 49 21.6417 49C22.05 49 22.6625 48.7958 23.0708 48.5917L47.5708 35.525C48.5917 34.9125 49.2042 33.8917 49.2042 32.8708V29.8083C49 28.7875 48.5917 27.7667 47.775 27.1542ZM4.08333 45.9375C4.08333 46.55 3.675 46.9583 3.0625 46.9583H2.04167V26.5417H3.0625C3.675 26.5417 4.08333 26.95 4.08333 27.5625V45.9375ZM8.16667 42.6708C8.16667 43.0792 7.9625 43.4875 7.55417 43.4875L6.125 44.3042V29.1958L7.55417 30.0125C7.9625 30.2167 8.16667 30.4208 8.16667 30.8292V42.6708ZM34.7083 3.0625C34.7083 2.45 35.1167 2.04167 35.7292 2.04167H39.8125C40.425 2.04167 40.8333 2.45 40.8333 3.0625V28.3792L34.7083 30.625V3.0625ZM26.5417 9.1875C26.5417 8.575 26.95 8.16667 27.5625 8.16667H32.6667V31.4417L29.8083 32.4625L29.1958 30.2167C28.7875 28.9917 27.7667 28.175 26.7458 27.9708V9.1875H26.5417ZM18.375 19.3958C18.375 18.7833 18.7833 18.375 19.3958 18.375H24.5V28.175L18.375 29.6042V19.3958ZM46.9583 32.6667C46.9583 33.075 46.7542 33.4833 46.3458 33.4833L21.8458 46.7542C21.6417 46.9583 21.2333 46.9583 20.825 46.7542L10.2083 40.6292V33.4833L25.9292 30.0125C26.5417 29.8083 26.95 30.2167 27.1542 30.8292L28.175 34.0958C28.175 34.3 28.175 34.7083 28.175 34.9125C27.9708 35.1167 27.7667 35.3208 27.5625 35.3208L21.4375 36.75C20.825 36.9542 20.6208 37.3625 20.6208 37.975C20.825 38.3833 21.2333 38.7917 21.6417 38.7917H21.8458L27.9708 37.3625C28.7875 37.1583 29.4 36.5458 29.8083 35.9333C30.0125 35.525 30.2167 35.1167 30.2167 34.7083L45.7333 28.9917C46.1417 28.7875 46.3458 28.9917 46.7542 29.1958C46.9583 29.4 47.1625 29.6042 47.1625 30.0125V32.6667H46.9583Z" fill="black"/>
</g>
</g>
<defs>
<clipPath id="clip0_1_111">
<rect width="49" height="49" fill="white"/>
</clipPath>
</defs>
</svg>
